<svg xmlns="http://www.w3.org/2000/svg" xmlns:xlink="http://www.w3.org/1999/xlink" version="1.1" x="0px" y="0px" width="60px" height="60px" enable-background="new 70 50 200 200" viewBox="70 50 200 200" xml:space="preserve">
    <g>
        <g>
            <path style="fill:#FF9F1F;" d="M224.815,241.217H119.169c0-15.799,12.161-40.608,12.161-40.608h81.311     C212.641,200.609,224.815,225.419,224.815,241.217z"/>
            <path style="fill:#222038;" d="M211.092,201.024c2.255,4.603,4.215,9.372,6.009,14.17c3.095,8.282,6.096,17.246,6.155,26.178     c0.01,1.465,3.127,0.894,3.12-0.311c-0.059-8.996-2.922-17.92-6.019-26.278c-1.832-4.943-3.845-9.853-6.165-14.59     C213.599,198.987,210.556,199.93,211.092,201.024L211.092,201.024z"/>
            <path style="fill:#222038;" d="M120.718,240.802c0.058-8.96,3.048-17.937,6.15-26.246c1.791-4.799,3.75-9.567,6.003-14.171     c0.365-0.746-2.637-0.464-3.083,0.448c-2.318,4.737-4.328,9.647-6.158,14.59c-3.085,8.332-5.952,17.242-6.011,26.21     C117.614,242.413,120.711,241.893,120.718,240.802L120.718,240.802z"/>
            <path style="fill:#FFEBD1;" d="M205.305,241.215h-66.627c0,0-0.947-8.512,4.315-21.801c0.556-1.426-3.518-3.308-3.518-18.807     h65.033c0,15.499-4.074,17.381-3.518,18.807C206.252,232.702,205.305,241.215,205.305,241.215z"/>
        </g>
        <g>
            <g>
                <path style="fill:#FF9F1F;" d="M153.288,108.054c0,0-35.014-52.703-51.78-41.96c-10.653,6.826-10.291,84.535-2.377,94.792      c5.177,6.71,16.661,11.015,16.661,11.015L153.288,108.054z"/>
                <path style="fill:#222038;" d="M154.837,107.639c-5.617-8.447-11.942-16.535-18.727-24.067      c-4.967-5.515-10.314-10.931-16.519-15.061c-4.645-3.092-10.208-5.604-15.859-4.019c-4.562,1.279-6.386,4.597-7.707,8.882      c-1.895,6.146-2.643,12.671-3.232,19.052c-1.493,16.162-1.483,32.672,0.125,48.826c0.563,5.654,1.172,11.602,3.123,16.98      c2.424,6.683,10.057,10.592,16.163,13.319c0.765,0.342,1.535,0.678,2.32,0.974c0.743,0.28,2.381-0.174,2.798-0.885      c4.239-7.217,8.477-14.435,12.716-21.652c6.717-11.438,13.434-22.876,20.152-34.313c1.543-2.627,3.086-5.255,4.629-7.882      c0.266-0.453-2.591-0.284-3.063,0.52c-4.239,7.217-8.477,14.435-12.716,21.652c-6.717,11.438-13.434,22.876-20.152,34.313      c-1.543,2.627-3.086,5.255-4.629,7.882c0.933-0.295,1.866-0.59,2.798-0.885c-2.751-1.038-5.412-2.397-7.937-3.896      c-3.259-1.935-7.139-4.431-9.036-7.832c-2.235-4.009-2.807-9.16-3.421-13.624c-2.082-15.13-2.2-30.677-1.379-45.906      c0.383-7.103,0.991-14.243,2.358-21.233c0.497-2.54,1.09-5.08,1.975-7.516c0.585-1.611,1.292-3.429,2.546-4.651      c3.13-3.048,8.95-0.308,12.103,1.482c6.044,3.43,11.225,8.376,15.99,13.375c7.791,8.174,14.761,17.17,21.138,26.482      c0.116,0.169,0.23,0.34,0.344,0.511C152.27,109.269,155.129,108.078,154.837,107.639z"/>
            </g>
            <path style="fill:#FF8A8A;" d="M147.285,118.276c0,0-29.069-38.783-36.978-33.744c-7.613,4.85-6.402,55.592-0.756,62.91     c3.693,4.787,13.505,12.09,13.505,12.09L147.285,118.276z"/>
            <path style="opacity:0.1;fill:#222221;" d="M153.284,108.052l-37.5,63.85c0,0-11.478-4.306-16.654-11.022     c-1.34-1.74-2.453-5.404-3.351-10.323c12.932-35.418,43.09-46.198,53.042-48.85C151.616,105.528,153.284,108.052,153.284,108.052     z"/>
        </g>
        <g>
            <g>
                <path style="fill:#FF9F1F;" d="M190.696,108.054c0,0,35.014-52.703,51.78-41.96c10.653,6.826,10.291,84.535,2.377,94.792      c-5.177,6.71-16.661,11.015-16.661,11.015L190.696,108.054z"/>
                <path style="fill:#222038;" d="M192.228,107.794c5.287-7.952,11.227-15.558,17.554-22.702      c4.806-5.426,9.943-10.748,15.852-14.985c3.802-2.727,8.953-6.077,13.82-4.262c3.794,1.415,4.982,5.882,5.918,9.425      c1.646,6.227,2.363,12.713,2.89,19.118c1.274,15.481,1.245,31.237-0.28,46.699c-0.545,5.523-1.169,11.268-2.968,16.551      c-2.223,6.529-9.265,10.254-15.189,12.945c-0.718,0.326-1.443,0.643-2.181,0.921c0.699-0.006,1.398-0.011,2.098-0.017      c-4.239-7.217-8.477-14.435-12.716-21.652c-6.717-11.438-13.434-22.876-20.151-34.313c-1.543-2.627-3.086-5.255-4.629-7.882      c-0.474-0.806-3.391,0.333-3.099,0.83c4.239,7.217,8.477,14.435,12.716,21.652c6.717,11.438,13.434,22.876,20.152,34.313      c1.543,2.627,3.086,5.255,4.629,7.882c0.335,0.57,1.675,0.143,2.098-0.017c2.831-1.069,5.571-2.441,8.187-3.955      c3.578-2.071,7.621-4.696,9.845-8.286c2.466-3.98,3.006-9.455,3.628-13.979c2.164-15.734,2.263-31.921,1.3-47.751      c-0.437-7.186-1.096-14.434-2.648-21.476c-0.791-3.587-1.791-8.997-5.072-11.268c-4.544-3.145-10.916-1.223-15.372,1.053      c-6.311,3.224-11.708,8.191-16.622,13.223c-5.239,5.366-10.05,11.148-14.611,17.096c-2.69,3.508-5.506,7.055-7.846,10.814      c-0.115,0.185-0.245,0.361-0.366,0.543c-0.332,0.499,1.121,0.38,1.256,0.359C191.036,108.576,191.861,108.346,192.228,107.794z"/>
            </g>
            <path style="fill:#FF8A8A;" d="M196.699,118.276c0,0,29.069-38.783,36.978-33.744c7.613,4.85,6.402,55.592,0.756,62.91     c-3.694,4.787-13.505,12.09-13.505,12.09L196.699,118.276z"/>
            <path style="opacity:0.1;fill:#222221;" d="M190.699,108.052l37.5,63.85c0,0,11.478-4.306,16.654-11.022     c1.34-1.74,2.452-5.404,3.351-10.323c-12.932-35.418-43.089-46.198-53.042-48.85     C192.367,105.528,190.699,108.052,190.699,108.052z"/>
        </g>
        <g>
            <g>
                <path style="fill:#FF9F1F;" d="M253.223,189.311c-1.583,2.538-12.319,1.112-12.319,1.112s5.489,6.088,3.95,7.585      c-2.338,2.267-8.384,4.577-8.384,4.577c-16.825,12.319-39.568,19.748-64.477,19.748c-24.909,0-47.652-7.429-64.477-19.748      c0,0-6.046-2.31-8.384-4.577c-1.54-1.497,3.95-7.585,3.95-7.585s-10.737,1.426-12.319-1.112      c-0.471-0.756,3.479-7.985,8.926-12.491c0,0,8.669-33.251,20.775-45.984c-0.77-1.083-2.31-3.45-1.839-4.249      c0.599-1.055,5.047-0.627,5.047-0.627s-3.95-3.878-2.795-5.204c1.369-1.611,7.457-1.754,8.798-1.768      c0.813-0.927,1.583-1.768,2.324-2.552c13.118-13.745,33.351-14.529,39.995-14.529c6.645,0,26.878,0.784,39.995,14.529      c0.742,0.784,1.511,1.626,2.324,2.552c1.34,0.014,7.429,0.157,8.798,1.768c1.155,1.326-2.795,5.204-2.795,5.204      s4.449-0.428,5.047,0.627c0.471,0.799-1.069,3.165-1.839,4.249c12.105,12.733,20.775,45.984,20.775,45.984      C249.744,181.327,253.693,188.556,253.223,189.311z"/>
            </g>
            <path style="fill:#FFEBD1;" d="M253.223,189.311c-1.583,2.538-12.319,1.112-12.319,1.112s5.489,6.088,3.95,7.585     c-2.338,2.267-8.384,4.577-8.384,4.577c-16.825,12.319-39.568,19.748-64.477,19.748c-24.909,0-47.652-7.429-64.477-19.748     c0,0-6.046-2.31-8.384-4.577c-1.54-1.497,3.95-7.585,3.95-7.585s-10.737,1.426-12.319-1.112     c-0.471-0.756,3.479-7.985,8.926-12.491c0,0,0.057-0.214,0.171-0.627c3.336-1.34,10.908-3.921,17.609-2.809     c8.655,1.426,11.792,14.986,21.53,16.825c11.207,2.125,25.295-9.71,25.295-9.71h14.458c0,0,14.087,11.835,25.295,9.71     c9.738-1.839,12.875-15.399,21.53-16.825c7.557-1.255,16.255,2.196,18.679,3.251c0.029,0.128,0.043,0.185,0.043,0.185     C249.744,181.327,253.693,188.556,253.223,189.311z"/>
            <path style="opacity:0.1;fill:#222221;" d="M253.227,189.311c-1.583,2.538-12.319,1.112-12.319,1.112s5.489,6.088,3.95,7.585     c-2.338,2.267-8.384,4.577-8.384,4.577c-16.825,12.319-39.568,19.748-64.477,19.748c-24.91,0-47.652-7.429-64.477-19.748     c0,0-6.046-2.31-8.384-4.577c-1.54-1.497,3.95-7.585,3.95-7.585s-10.737,1.426-12.319-1.112     c-0.471-0.756,3.479-7.985,8.926-12.491c0,0,2.895-11.107,7.685-22.956c-1.069,4.092-12.79,55.865,64.605,55.865     c79.249,0,65.076-54.197,64.548-56.079c4.834,11.92,7.771,23.17,7.771,23.17C249.748,181.327,253.698,188.556,253.227,189.311z"/>
            <g>
                <g>
                    <g>
                        <g>
                            <path style="fill:#222038;" d="M140.808,169.504c-5.024,0-8.822,4.067-8.672,9.45c0.148,5.321,4.037,8.493,8.672,8.493         c5.054,0,8.642-4.276,8.642-8.971S146.011,169.504,140.808,169.504z"/>
                        </g>
                    </g>
                    <g>
                        <g>
                            <path style="fill:#222038;" d="M203.176,169.504c5.024,0,8.822,4.067,8.672,9.45c-0.148,5.321-4.037,8.493-8.672,8.493         c-5.054,0-8.642-4.276-8.642-8.971S197.973,169.504,203.176,169.504z"/>
                        </g>
                    </g>
                </g>
                <path style="fill:#FF8A8A;" d="M125.653,185.139c5.77-0.353,9.994,1.717,10.545,3.834c0.551,2.117-5.8,3.358-9.669,3.358      c-3.869,0-9.855-0.73-10.074-2.993C116.237,187.075,120.252,185.469,125.653,185.139z"/>
                <path style="fill:#FF8A8A;" d="M216.958,185.139c5.77-0.353,9.994,1.717,10.545,3.834c0.551,2.117-5.8,3.358-9.669,3.358      c-3.869,0-9.855-0.73-10.074-2.993C207.541,187.075,211.556,185.469,216.958,185.139z"/>
                <path style="fill:#FFEBD1;" d="M131.499,159.193c-1.158-3.684,5.683-10.428,13.369-9.777c4.977,0.422,7.282,7.765,3.36,10.48      C145.296,161.926,132.803,163.342,131.499,159.193z"/>
                <path style="fill:#FFEBD1;" d="M212.484,159.193c1.158-3.684-5.683-10.428-13.369-9.777c-4.977,0.422-7.282,7.765-3.36,10.48      C198.687,161.926,211.18,163.342,212.484,159.193z"/>
                <path style="fill:#222038;" d="M182.343,179.516c0,1.255-6.801,5.604-10.352,5.604c-3.565,0-10.352-4.349-10.352-5.604      c0-1.269,3.593-3.64,10.352-3.64C178.75,175.876,182.343,178.247,182.343,179.516z"/>
                <path style="fill:#222038;" d="M187.396,189.403c1.176,4.629-3.675,7.981-7.951,6.161c-1.984-0.74-3.559-2.031-4.979-3.37      c-1.395-1.398-2.574-2.871-3.683-4.546h2.426c-2.264,3.307-4.813,6.355-8.659,7.92c-4.313,1.798-9.109-1.491-7.953-6.165      c0.314,2.733,2.183,4.875,4.843,4.639c4.179-0.463,7.087-4.657,9.343-7.889c0,0,1.217-1.934,1.217-1.934      c2.101,3.454,4.709,7.305,8.331,9.235C183.562,195.17,187.066,193.19,187.396,189.403L187.396,189.403z"/>
            </g>
            <path style="fill:#222038;" d="M251.936,188.893c-0.935,1.293-4.444,0.873-5.828,0.825c-1.554-0.054-3.113-0.171-4.656-0.373     c-0.695-0.091-2.858,0.759-1.971,1.747c0.876,0.976,1.701,2.01,2.451,3.085c0.516,0.739,1.055,1.516,1.378,2.363     c0.412,1.082,0.238,1.137-0.673,1.777c-1.826,1.283-3.926,2.212-5.981,3.063c-1.893,0.784-3.475,2.184-5.188,3.301     c-10.808,7.045-23.08,11.71-35.698,14.264c-26.489,5.362-55.63,1.669-79.119-12.035c-1.492-0.87-2.96-1.781-4.402-2.733     c-1.262-0.834-2.483-1.921-3.83-2.597c-1.782-0.894-3.661-1.537-5.402-2.539c-0.694-0.399-2.398-1.166-2.586-1.992     c-0.169-0.745,0.719-1.926,1.082-2.505c0.824-1.316,1.817-2.548,2.854-3.703c0.778-0.867-0.243-1.616-1.134-1.499     c-1.722,0.225-3.465,0.35-5.2,0.389c-1.035,0.023-5.446,0.144-5.725-0.908c-0.167-0.627,0.879-2.054,1.181-2.583     c0.955-1.676,2.075-3.256,3.3-4.744c1.202-1.46,2.654-2.634,3.914-4.015c0.373-0.409,0.489-0.668,0.645-1.145     c1.072-3.274,1.906-6.631,2.981-9.908c1.926-5.867,4.077-11.671,6.595-17.311c2.818-6.313,6.053-12.778,10.825-17.861     c0.286-0.305,0.386-0.729,0.136-1.086c-0.53-0.758-1.08-1.538-1.454-2.388c-0.054-0.131-0.107-0.262-0.161-0.393     c0.023-0.353-0.1-0.458-0.369-0.316c-0.348,0.075-0.337,0.068,0.034-0.021c0.132-0.018,0.265-0.033,0.399-0.043     c0.929-0.077,1.861-0.054,2.788,0.031c0.633,0.058,2.934-0.793,1.971-1.747c-0.89-0.882-1.807-1.876-2.418-2.975     c-0.27-0.486-0.592-0.953-0.239-1.325c0.521-0.548,2.201-0.579,2.904-0.664c1.479-0.18,3.41,0.115,4.804-0.407     c1.066-0.399,1.827-1.66,2.577-2.467c1.032-1.111,2.107-2.176,3.262-3.16c7.222-6.146,16.472-9.382,25.774-10.64     c14.474-1.956,30.698-0.039,42.909,8.429c2.598,1.802,4.907,3.908,7.035,6.242c0.773,0.848,1.242,1.661,2.434,1.746     c0.929,0.066,1.861,0.066,2.79,0.148c1.107,0.098,4.921,0.172,4.761,1.758c-0.125,1.237-1.812,2.725-2.658,3.563     c-0.867,0.859,0.312,1.575,1.134,1.499c0.971-0.089,1.995-0.162,2.962-0.02c0.851,0.125,0.856,0.147,0.505,1.025     c-0.334,0.836-0.882,1.639-1.394,2.371c-0.213,0.304-0.458,0.743-0.136,1.086c6.958,7.412,11.053,17.531,14.576,26.914     c1.568,4.175,2.994,8.404,4.299,12.668c0.586,1.914,0.885,4.273,1.755,6.078c0.414,0.859,1.482,1.489,2.161,2.172     c1.247,1.255,2.39,2.613,3.439,4.036c0.91,1.234,1.767,2.521,2.491,3.874c0.203,0.38,0.915,1.951,0.929,1.914     c-0.628,1.615,2.474,1.517,2.948,0.299c0.534-1.373-0.848-3.27-1.503-4.381c-1.556-2.644-3.474-5.115-5.655-7.272     c-0.991-0.981-1.592-1.046-1.918-2.238c-0.318-1.161-0.652-2.318-0.994-3.473c-2.794-9.428-6.106-18.791-10.452-27.623     c-2.5-5.08-5.332-10.152-9.23-14.304c-0.045,0.362-0.091,0.724-0.136,1.086c0.965-1.38,3.585-4.654,1.253-5.915     c-1.568-0.848-3.882-0.618-5.596-0.461c0.378,0.5,0.756,1,1.135,1.499c1.325-1.313,4.557-4.536,2.76-6.464     c-1.067-1.145-3.032-1.405-4.493-1.633c-1.653-0.258-3.335-0.351-5.007-0.372c0.291,0.137,0.582,0.274,0.873,0.411     c-5.124-5.805-11.1-10.208-18.32-13.072c-5.82-2.309-12.049-3.599-18.277-4.139c-9.924-0.86-20.229,0.041-29.669,3.299     c-8.316,2.87-15.268,7.575-21.082,14.162c0.479-0.221,0.959-0.442,1.438-0.663c-3.028,0.039-7.547-0.045-9.929,2.137     c-2.188,2.004,0.865,5.111,2.352,6.584c0.657-0.582,1.314-1.164,1.971-1.747c-1.856-0.171-4.158-0.337-5.874,0.518     c-2.743,1.366-0.504,4.39,0.695,6.105c0.045-0.362,0.091-0.724,0.136-1.086c-5.626,5.993-9.303,13.794-12.454,21.294     c-2.849,6.782-5.251,13.759-7.345,20.809c-0.437,1.471-0.867,2.947-1.255,4.432c0.184-0.264,0.367-0.528,0.551-0.792     c-3.052,2.581-5.648,5.667-7.723,9.084c-0.831,1.369-2.756,3.94-1.06,5.304c1.876,1.507,5.034,1.373,7.289,1.354     c1.918-0.017,3.847-0.148,5.75-0.398c-0.378-0.5-0.756-1-1.135-1.499c-0.989,1.102-1.905,2.278-2.739,3.5     c-0.816,1.196-2.387,3.349-1.543,4.872c1.007,1.819,4.089,2.98,5.869,3.817c0.89,0.418,1.828,0.754,2.707,1.189     c0.94,0.466,1.755,1.17,2.638,1.773c11.429,7.798,24.561,12.964,38.079,15.752c28.267,5.83,59.317,1.765,84.158-13.314     c2.375-1.441,4.615-3.484,7.16-4.546c2.535-1.057,5.205-2.255,7.337-4.017c3.169-2.62-1.192-7.114-3.133-9.277     c-0.657,0.582-1.314,1.164-1.971,1.747c2.157,0.282,4.343,0.41,6.517,0.401c2.355-0.009,6.083-0.023,7.638-2.174     C255.648,188.154,252.727,187.799,251.936,188.893z"/>
        </g>
        <g>
            <g>
                <path style="fill:#FF9F1F;" d="M148.847,241.271c0,0-13.434-33.107-22.833-43.538c-8.597-9.541-16.426-1.582-17.47,9.246      c-0.764,7.924,1.626,34.443,1.626,34.443"/>
                <path style="fill:#222038;" d="M150.396,240.856c-1.934-4.761-4.014-9.466-6.158-14.135      c-3.782-8.236-7.742-16.522-12.692-24.132c-2.279-3.503-4.937-7.37-8.81-9.222c-4.082-1.952-8.632-0.659-11.517,2.721      c-5.675,6.65-4.511,16.551-4.101,24.639c0.357,7.044,0.87,14.085,1.502,21.11c0.118,1.306,3.226,0.581,3.099-0.83      c-0.482-5.355-0.883-10.72-1.217-16.087c-0.249-4.004-0.464-8.013-0.529-12.025c-0.06-3.741-0.028-7.51,1.179-11.099      c1.299-3.858,4.425-8.745,9.117-6.734c3.722,1.595,6.292,5.566,8.429,8.851c4.633,7.123,8.371,14.843,11.936,22.541      c2.328,5.027,4.578,10.099,6.663,15.232C147.827,242.991,150.901,242.099,150.396,240.856L150.396,240.856z"/>
            </g>
            <g>
                <path style="fill:#FF8A8A;" d="M123.513,207.227c0.749,2.45-0.221,4.918-2.166,5.512c-1.945,0.595-4.129-0.91-4.878-3.359      c-0.749-2.45,0.221-4.918,2.166-5.512C120.58,203.273,122.764,204.777,123.513,207.227z"/>
                <path style="fill:#FF8A8A;" d="M114.872,204.588c0.784,1.01,0.953,2.349,0.377,2.991c-0.576,0.642-1.678,0.343-2.462-0.667      c-0.784-1.01-0.953-2.349-0.377-2.991C112.986,203.28,114.088,203.578,114.872,204.588z"/>
                <path style="fill:#FF8A8A;" d="M117.186,200.992c0.566,1.189,0.447,2.491-0.267,2.908c-0.714,0.417-1.752-0.208-2.318-1.397      c-0.566-1.189-0.447-2.491,0.267-2.908C115.582,199.178,116.62,199.804,117.186,200.992z"/>
                <path style="fill:#FF8A8A;" d="M122.158,202.361c-0.085,1.276,0.523,2.48,1.359,2.691c0.836,0.21,1.583-0.654,1.669-1.929      c0.085-1.276-0.523-2.48-1.359-2.691C122.991,200.222,122.243,201.086,122.158,202.361z"/>
                <path style="fill:#FF8A8A;" d="M118.101,200.713c0.195,1.302,1.022,2.315,1.847,2.262c0.825-0.053,1.336-1.152,1.141-2.454      c-0.195-1.302-1.022-2.315-1.847-2.262C118.416,198.312,117.906,199.411,118.101,200.713z"/>
            </g>
        </g>
        <g>
            <path style="fill:#FF9F1F;" d="M163.726,241.135c0,0,30.522-29.914,50.458-28.902c15.409,0.782,22.658,19.818,10.469,28.947     C207.905,253.723,163.726,241.135,163.726,241.135z"/>
            <path style="fill:#222038;" d="M164.967,241.383c5.514-5.398,11.565-10.352,17.81-14.871c5.185-3.752,10.641-7.258,16.478-9.91     c5.084-2.31,10.917-4.315,16.563-3.221c11.85,2.296,18.406,18.166,8.602,26.736c-4.117,3.599-9.848,4.834-15.138,5.399     c-6.23,0.665-12.57,0.366-18.786-0.304c-8.677-0.936-17.415-2.524-25.818-4.913c-0.977-0.278-3.633,1.179-1.901,1.671     c7.883,2.241,16.055,3.749,24.183,4.726c6.658,0.8,13.391,1.201,20.088,0.684c5.906-0.456,12.12-1.652,17.217-4.828     c5.156-3.212,8.438-8.589,8.046-14.752c-0.388-6.096-4.285-11.654-9.682-14.412c-11.666-5.961-25.974,1.845-35.776,8.129     c-8.694,5.573-16.979,12.139-24.366,19.369C161.205,242.14,164.24,242.095,164.967,241.383z"/>
        </g>
    </g>
</svg>